<?xml version="1.0" encoding="UTF-8" standalone="no"?>
<svg xmlns:rdf="http://www.w3.org/1999/02/22-rdf-syntax-ns#" xmlns="http://www.w3.org/2000/svg" height="125.75" width="125.75" version="1.1" xmlns:cc="http://creativecommons.org/ns#" xmlns:dc="http://purl.org/dc/elements/1.1/" viewBox="0 0 100.603 100.59698">
 <g stroke="#000" transform="translate(-.33306 -.41737)">
  <path d="m50.749 99.766c27.051 0 48.984-21.929 48.984-48.98 0-27.055-21.933-48.984-48.984-48.984-27.051-0.0004-48.984 21.929-48.984 48.984 0 27.051 21.934 48.98 48.984 48.98z" stroke-width="1.035" fill="#cfb87c"/>
  <g fill="none">
   <path d="m50.684 87.716c20.387 0 36.91-16.523 36.91-36.91 0-20.383-16.523-36.91-36.91-36.91-20.383 0-36.906 16.527-36.906 36.91 0 20.387 16.523 36.91 36.906 36.91zm0.089 9.316c25.527 0 46.223-20.699 46.223-46.227 0-25.527-20.695-46.223-46.223-46.223-25.531 0-46.223 20.695-46.223 46.223 0 25.527 20.691 46.227 46.223 46.227z" stroke-width="1.035"/>
   <path d="m50.753 84.63c18.672 0 33.805-15.137 33.805-33.805 0-18.672-15.133-33.805-33.805-33.805-18.668 0-33.805 15.133-33.805 33.805 0 18.668 15.137 33.805 33.805 33.805z" stroke-width="2.069"/>
   <path d="m46.823 27.192 0.29687 0.008-0.13672-0.28125zm-11.082-0.015 0.29687 0.008-0.13672-0.27735z" stroke-width="0.216"/>
   <path d="m53.917 41.048s0.32813-0.40235 0.51953-0.40235c0.54688 0 0.51563 0.375 0.51563 0.375s-0.0273 2.3828 0 3.0156c0.0312 0.63281-0.25781 0.80859-0.42969 0.80859-0.17187 0-0.54687-0.32031-0.54687-0.32031l-1.0039-1.5508v1.2656s0.11328 0.51563-0.54687 0.54688c-0.66407 0.0273-0.71485-0.60547-0.71485-0.60547s0.0195-1.8125 0-2.7305c0 0-0.004-0.83594 0.51172-0.80469 0.51953 0.0273 0.57422-0.0859 0.83594 0.31641 0.25781 0.40234 0.6875 1.1797 0.6875 1.1797zm-13.195 2.0156v1.1914s-0.0273 0.60937 0.43359 0.60937c0.46094 0 0.57422-0.64062 0.57422-0.64062v-1.4062l1.0078-1s0.23046-0.54688 0-0.80469c-0.23047-0.25781-0.66016-0.14453-0.89063 0.11328-0.23047 0.26172-0.69141 0.80469-0.69141 0.80469l-0.83203-0.86328s-0.40234-0.45703-0.89062-0.17188c-0.49219 0.28907-0.0586 0.97657-0.0586 0.97657zm8.2617-6.9258h1.4648s0.375 0.0312 0.40235 0.34766c0.0273 0.3164-0.31641 0.63281-0.31641 0.63281h-2.3008c-1.0898-0.0586-0.54688-0.92187-0.54688-0.92187l0.69141-1.1758s-0.14453-0.0391-0.83594-0.75c-0.83203-0.86328 0.20703-1.2656 0.32422-1.293 0.11719-0.0312 2.293 0.0273 2.293 0.0273s0.51563 0.0312 0.51563 0.48828c0 0.46094-0.48438 0.46094-0.48438 0.46094l-1.293-0.0117 0.54297 0.75781s0.40234 0.20313 0.11719 0.66406c-0.28906 0.45704-0.57422 0.77344-0.57422 0.77344zm4.9336-11.16s-1.3789-0.14063-1.4062 2.1562c0 0 0.19922 0.80468-0.28906 1.2383 0 0-0.51562 0.0859-0.46094 0.57422 0.0586 0.48828 0.375 0.57421 0.77735 0.40234 0.40234-0.17188 1.1094-1.0078 1.0234-1.8672 0 0-0.0156-0.84765 0.35547-0.9375 0.375-0.0859 0.46094 0.35938 0.51953 0.96485 0.0547 0.60156-0.11718 1.0625 0.69141 1.6094 0 0 0.51563 0.33203 0.91797-0.0156 0 0 0.0859-0.5586-0.25781-0.73047-0.34766-0.17188-0.40235-1.4102-0.48828-1.7812-0.0899-0.375 0.0586-1.5274-1.3828-1.6133zm-4.6836 15.684s-1.3789-0.14453-1.4102 2.1562c0 0 0.20313 0.80078-0.28515 1.2344 0 0-0.51563 0.0859-0.46094 0.57422 0.0547 0.48828 0.375 0.57422 0.77734 0.40235 0.40235-0.17188 1.1094-1.0039 1.0195-1.8672 0 0-0.0156-0.84766 0.35938-0.93359 0.375-0.0859 0.46094 0.35546 0.51562 0.96093 0.0586 0.60547-0.11328 1.0664 0.69141 1.6133 0 0 0.51563 0.32813 0.91797-0.0156 0 0 0.0859-0.5625-0.25781-0.73438-0.34375-0.17187-0.40235-1.4102-0.48828-1.7812-0.0859-0.375 0.0586-1.5234-1.3789-1.6094zm-4.1094-7.6055s-1.3828-0.14453-1.4102 2.1562c0 0 0.19922 0.80469-0.28906 1.2383 0 0-0.51563 0.0859-0.45704 0.57422 0.0547 0.48828 0.3711 0.57422 0.77344 0.40234 0.40625-0.17187 1.1133-1.0078 1.0274-1.8711 0 0-0.11329-0.51562 0.26171-0.60156 0.3711-0.0859 0.55079 0.0273 0.60938 0.63281 0.0586 0.60156-0.11328 1.0625 0.69141 1.6094 0 0 0.34375 0.30468 0.74609-0.0391 0 0 0.25781-0.53516-0.0859-0.70704-0.34375-0.17578-0.40234-1.4102-0.48828-1.7852-0.0859-0.375 0.0586-1.5234-1.3789-1.6094zm-3.457 1.3164s0.46485 0.10156 0.44141 0.49218c-0.0234 0.39063-0.44141 0.33985-0.44141 0.33985zm-1.0234-0.043s-0.46485 0.0977-0.44141 0.48828c0.0234 0.39062 0.44141 0.33984 0.44141 0.33984zm0.45307-2.2578s0.48828-0.10938 0.54688 0.83984c0 0 1.7031 0.28906 1.6758 2.043-0.0312 1.7539-1.7031 1.7266-1.7031 1.7266s0.23047 0.85156-0.51953 0.88281m0-5.4923s-0.48828-0.10938-0.54687 0.83984c0 0-1.7031 0.28906-1.6719 2.043 0.0273 1.7539 1.7031 1.7266 1.7031 1.7266s-0.23047 0.85156 0.51562 0.88281m-6.7266-3.0704s-0.48828 0.0586-0.48828 0.375c0 0.31641-0.0273 0.54688 0.3164 0.54688 0.34375 0 0.4336 0.0273 0.54688-0.31641 0.11719-0.34375-0.0859-0.57813-0.375-0.60547zm0.11719-1.3516s-1.668-0.0586-1.8711 1.4375c-0.19922 1.4961 0.83594 2.2148 1.582 2.2422 0.75 0.0312 1.8711-0.71875 1.8984-1.9531 0.0273-1.2383-0.94922-1.582-1.6094-1.7266zm-3.8829-0.11329h1.6953s0.34765 0.14453 0.375 0.42968c0 0 0.20312 0.28907-0.28516 0.46094-0.49219 0.17188-1.2656 0.1211-1.2656 0.1211v2.1484s-0.0312 0.69141-0.54687 0.60547m0.0273-3.7656h-1.6953s-0.34375 0.14453-0.375 0.42968c0 0-0.19922 0.28907 0.28906 0.46094 0.48828 0.17188 1.2656 0.1211 1.2656 0.1211v2.1484s0.0273 0.69141 0.54297 0.60547m19.57-12.002s1.1094-0.0117 1.3164 0c0.20703 0.0117 0.51172 0.0469 0.53906 0.33203 0.0274 0.28906 0.0547 0.54687-0.3164 0.63281-0.375 0.0859-1.0859 0.0352-1.0859 0.0352v3.0703s-0.14453 0.40234-0.50781 0.38672m0.05469-4.4571s-1.1055-0.0117-1.3125 0c-0.21093 0.0117-0.51171 0.0469-0.53906 0.33203-0.0312 0.28906-0.0586 0.54687 0.3125 0.63281 0.375 0.0859 1.0859 0.0352 1.0859 0.0352v3.0703s0.14453 0.40234 0.51172 0.38672m-3.8078-1.0161-0.38671 0.77734s-0.34766 0.25781-0.64844 0.25781-0.51563-0.43359-0.25781-1.207c0.25781-0.77734 1.1641-2.5898 1.1641-2.5898s0.64453-1.0312 1.1641-0.12891c0.51563 0.90625 1.3789 3.0195 1.3789 3.0195s0.043 0.82031-0.17188 0.90625c-0.21484 0.0859-0.73437 0.12891-0.99219-0.30469-0.25781-0.42968-0.21484-0.73046-0.21484-0.73046zm-2.4336 1.0195s0.31641 0.14843 0.40234-0.42578c0.0859-0.57813 0-1.457 0-1.457l1.1797-1.4648s0.37891-0.76562 0.0352-0.99609c-0.34375-0.23047-0.46875-0.15625-0.8125 0.27734-0.34375 0.42969-0.34375 0.48047-0.34375 0.48047v-0.71875s-0.0352-0.28125-0.46094-0.23828m0 4.5428s-0.31641 0.14843-0.40234-0.42578c-0.0859-0.57813 0-1.457 0-1.457l-1.1797-1.4648s-0.37891-0.76562-0.0352-0.99609c0.34375-0.23047 0.46875-0.15625 0.8125 0.27734 0.34375 0.42969 0.34375 0.48047 0.34375 0.48047v-0.71875s0.0352-0.28125 0.46094-0.23828m0.89408 17.433s0.61328-1.5078 1.1445-1.4922c0.53125 0.0156 0.69922 0.67188 0.69922 0.67188s0.0391 2.457 0 2.9062c-0.043 0.45312-0.18359 0.55859-0.45313 0.65625-0.449 0.165-0.606-0.366-0.606-0.366l-0.008-1.5586s-0.17188 0.57422-0.78516 0.61719m0.0742-1.4335s-0.61328-1.5078-1.1445-1.4922c-0.53516 0.0156-0.69922 0.67188-0.69922 0.67188s-0.0391 2.457 0 2.9062c0.043 0.45312 0.18359 0.55859 0.45312 0.65625 0.44922 0.16406 0.60547-0.36719 0.60547-0.36719l0.008-1.5586s0.17188 0.57422 0.78906 0.61719m-4.996-17.213s0.64844-1.5898 1.2109-1.5703c0.55859 0.0156 0.73047 0.70703 0.73047 0.70703s0.043 2.5859 0 3.0625c-0.043 0.47265-0.1875 0.58593-0.47266 0.6875-0.47656 0.17187-0.63672-0.38672-0.63672-0.38672l-0.0117-1.6406s-0.17969 0.60547-0.82813 0.64844m0.08181-1.5079s-0.64844-1.5898-1.207-1.5703c-0.5625 0.0156-0.73437 0.70703-0.73437 0.70703s-0.043 2.5859 0 3.0625c0.043 0.47265 0.1914 0.58593 0.47656 0.6875 0.47265 0.17187 0.63672-0.38672 0.63672-0.38672l0.008-1.6406s0.18359 0.60547 0.82812 0.64844m-4.7068 0.34365-0.39062 0.77734s-0.34375 0.25782-0.64453 0.25782c-0.30469 0-0.51953-0.42969-0.25782-1.207 0.25782-0.77735 1.1602-2.5859 1.1602-2.5859s0.64844-1.0352 1.168-0.12891c0.51562 0.90235 1.3789 3.0156 1.3789 3.0156s0.043 0.82031-0.17188 0.90625c-0.21875 0.0859-0.73437 0.1289-0.99219-0.30078-0.25781-0.4336-0.21484-0.73438-0.21484-0.73438zm-3.6562-0.6875s0.42969 1.1172 0.6875 1.5078c0.26172 0.38672 0.73438 0.21485 0.99219 0.043 0.25781-0.17187 0.30078-0.90625 0.30078-0.90625s-0.51562-1.3359-1.1172-2.6719c-0.60546-1.3359-1.2969-0.21485-1.2969-0.21485l-1.7656 2.8867s-0.47656 0.73438 0.17188 1.0781c0.64453 0.34375 1.1211-0.42969 1.1211-0.42969zm30.656 33.328s1.8125 0.25781 1.6406-0.60157l1.207 1.8086s-2.2461-0.94922-2.1562 0.60547c0 0 0-1.207-0.69141-1.8125z" stroke-width=".345"/>
   <path d="m61.163 86.149s-2.0703 4.082-0.86328 6.3242 2.9688 2.832 4.1406 2.5273c1.5508-0.40234 3.2188-2.125 2.7578-4.1953-0.42188-1.8984-2.4727-3.4492-4.3672-2.3008 0 0 0.46094-2.4141 1.7227-3.5039m-6.7851 2.1255s-2.5859 3.1641-2.4688 9.832m-4.082-9.1406-0.80859 2.9883 3.1641-0.86328s-1.4922 3.6211-1.4375 7.0156m-7.6445-9.7734s-2.4141-0.05859-3.0469 1.7812c0 0-0.75 0.74609 0.40234 1.8984 0 0-1.7852-0.10156-2.1289 2.2969-0.34375 2.418 2.2422 2.9336 2.7617 3.2227 0.51562 0.28516 2.4141 0.34375 3.332-0.86328 0.92188-1.207 0.63281-2.875-0.11328-3.4492 0 0 0.74609-0.05859 1.3242-1.1484 0.57031-1.0938-0.23438-2.6445-0.23438-2.6445s-0.74609-0.92188-2.2969-1.0938zm-11.441 5.9219 2.3008-6.3242 3.4453-0.69141-2.6992 8.5117m-3.802-12.064s-1.4805-0.33203-1.9102 0.85547c-0.43359 1.1836-0.28125 1.8125 0.70703 2.1836 0.98438 0.37109 1.543 0.05469 2.0469-1.0469 0.50391-1.0977-0.55078-1.6367-0.84375-1.9922zm-3.0078 5.4727s-1.4805-0.33203-1.9102 0.85547c-0.42969 1.1875-0.28125 1.8125 0.70703 2.1836 0.98828 0.37109 1.543 0.05469 2.0508-1.0469 0.50391-1.0977-0.55078-1.6367-0.84766-1.9922zm39.98-5.1328s-1.207 0.91797-0.57422 2.0117c0.63281 1.0938 1.207 1.3789 2.125 0.85938 0.92188-0.51562 1.0352-1.1445 0.51953-2.2383-0.51953-1.0938-1.6094-0.63281-2.0703-0.63281zm2.527 5.05s-1.2031 0.92188-0.57031 2.0117c0.62891 1.0938 1.207 1.3789 2.125 0.86328 0.921-0.519 1.035-1.148 0.515-2.242-0.515-1.093-1.609-0.632-2.07-0.632zm6.4414-7.5859s-1.0938 0.16797-1.0938 0.97656c0 0.80469 0.34766 1.2656 1.0352 1.2656 0.69141 0 1.2656-0.34766 1.2656-0.86328 0-0.51953-0.05859-1.0938-1.207-1.3789zm-2.4805-2.5547s2.7617-1.8945 5.6367 0.69141c2.8711 2.5859 0.63281 5.9805 0.28516 6.4961-0.34375 0.51953-3.5078 2.3555-5.8047 0.23047-2.3008-2.1289-2.1289-5.6914-0.11719-7.418zm8.5156-5.8398 2.418 1.4375s-0.92188 1.3203-1.7852 1.0352c-0.86328-0.28906-1.207-1.1484-0.63281-2.4727zm-2.887-0.616s-1.4805 3.375 0.82031 5.1016c2.2969 1.7227 5.918 1.0352 7.3555-0.69141m-6.207-7.4726 7.875 4.6562m-4.8248-11.495 1.207 1.207-0.51562 1.6641-1.7266-0.11328m-1.4961 2.875 9.6602 0.57422m-6.5552-8.9101 7.875 5.6328m-1.4922-11.152s-0.17578 1.1484 0.28516 1.1484 0.57422-1.0938 0.57422-1.0938zm-5.8632-0.11726 2.6445 0.28906-3.0469 1.6094m0.62943-4.8327 9.027 0.406s0.01172 4.5117-0.40234 5.4609c-0.57422 1.3242-2.1836 2.0703-3.2188 1.9531-1.035-0.113-2.012-0.918-2.129-2.296l-4.1367 2.2969m5.0008-14.659s1.0352 0.51953 1.0938 1.1523c0.05469 0.63281-0.34375 1.3203-1.0938 1.2617-0.74609-0.05469-1.3203-0.22656-1.4375-1.0352-0.11328-0.80078 0.40234-1.3203 1.4375-1.3789zm-4.6562 1.1523s0.57422-4.082 4.082-4.1406c3.5039-0.05859 4.7695 3.0469 4.8867 4.082 0.11328 1.0352-0.86328 4.8281-4.1992 4.7148-3.332-0.11719-4.4805-2.8164-4.7695-4.6562zm6.0352-11.328-5.918 2.875 1.4336 3.793-2.8711-0.11328m6.0899-9.2579-8.1055 3.9102m2.4727-7.586s-0.34375-1.207-1.8398-0.86328c-1.1328 0.26172-1.0898 1.4922-0.91797 1.8398 0.17188 0.34375 0.80469 1.1484 1.668 0.80469 0.85938-0.34375 1.207-0.51953 1.0898-1.7812zm2.0703-2.2422s-2.7578-2.9336-5.4023-1.2656-2.9336 4.6562-1.8438 6.3828c1.0938 1.7227 3.7969 2.0664 5.2344 1.5508 1.4375-0.51562 4.082-2.9336 2.0117-6.668zm-6.3828-7.6484s-2.7148-2.5508-5.7461-0.63281c-3.4492 2.1875-1.1523 6.2109-1.1523 6.2109s1.4961 1.4922 4.1992 2.3555l0.6875-2.3008s-2.8164-0.97656-2.8164-2.2383c0-1.2656 0.51953-1.7852 0.51953-1.7852s0.74609-0.80469 1.8359-0.05469c1.0938 0.74609 1.7852 2.6406 1.7852 2.6406l2.0703-1.7227zm-8.1641-6.0938s-1.1484-0.91797-2.0117-0.05859c-0.85938 0.86328-0.91406 2.0859-0.05469 2.6445 1.3203 0.86328 2.1836-0.17188 2.1836-0.17188s1.0352-1.0898-0.11719-2.4141zm-3.1016 5.1172s-1.1484-0.91797-2.0117-0.05859c-0.86328 0.86328-0.91797 2.0859-0.05859 2.6445 1.3203 0.86328 2.1836-0.17188 2.1836-0.17188s1.0352-1.0898-0.11328-2.4141zm-2.414-7.7031 0.05469 2.0703-3.6797-1.207-0.29688 0.80469 2.1367 0.80469-1.1484 1.8398-1.9531-0.69141-1.0938 3.8516m0.05479-9.543-2.4141 8.7969m-5.2382-7.1602s-1.5508 0.05859-1.5508 1.3828c0 1.3203 1.4375 1.6094 1.4375 1.6094s1.6445-0.17188 1.6094-1.3789c-0.05078-1.6406-1.4961-1.6133-1.4961-1.6133zm-0.11328-3.043s-3.9102-0.17578-4.1953 3.9062c-0.28906 4.082 2.5547 5.1445 3.332 5.2305 1.2734 0.14453 4.6016-0.62891 4.9453-3.6211 0.34375-2.9883-0.97656-5.3438-4.082-5.5156zm-8.9609 0.42969s-1.6094 0.23047-1.4961 1.4375c0.11719 1.207 0.28906 1.8398 1.4375 1.8945 1.1484 0.05859 1.7266-1.0898 1.668-1.6641-0.05859-0.57812-0.17188-1.668-1.6094-1.668zm0.402 5.4026s-1.6094 0.23047-1.4961 1.4375c0.11719 1.207 0.28906 1.8398 1.4375 1.8984 1.1523 0.05469 1.7266-1.0938 1.668-1.668-0.05859-0.57422-0.17188-1.668-1.6094-1.668zm-10.749-3.1055 2.527 1.7266 0.574-2.9336m3.1625-0.3012-1.7266 4.6719 1.4961 4.3711m-8.9687-6.2696 4.7695 3.0469 1.5547 4.1406m-7.9336-6.496 1.1211 1.9414-2.4453 1.4492 3.3945 5.5781m-9.1981-4.9458 1.4375 2.1289 1.952-1.265 3.6211 5.5742m-8.909-4.942 6.1523 6.7266m-8.2227-4.6602 6.0938 6.4414m-12.421 0.087s-0.81641 2.543 0.77734 3.4922c1.5977 0.94922 3.793-0.42969 3.793-0.42969s0.86328-0.51953 1.0781-0.26172c0.21875 0.26172-0.38672 0.86328-0.38672 0.86328l-1.4648 1.0781 1.0781 2.1562s2.7578-1.3789 3.4062-2.3711c0.64453-0.99219 1.1641-2.5 0.34375-3.5352 0 0-0.82031-1.1641-2.1992-1.25-1.3789-0.08594-2.7148 0.81641-2.7148 0.81641s-0.5625 0.5625-0.77734 0.12891c-0.21484-0.42969 0.25781-0.6875 0.25781-0.6875l1.4688-1.1641-2.418-1.3789m-5.7777 13.582 1.5547 0.402s0.94531-1.5234 0.25781-1.9531c-0.69141-0.43359-1.1211-0.26172-1.8125 1.5508zm7.332 0.40235-3.625 0.71875 2.8477 1.1211m-7.0699-6.297s3.793-3.4492 4.8281 1.8125l4.398-0.086m-11.468 4.1372 8.2773 3.2773m-0.68744 3.0195-3.1055-2.4141-0.69141 4.7422 0.08594-2.1562-2.7578-0.77734-0.60547 2.5039m-1.8946-3.5393 2.3282-0.515-0.3477 4.398m-2.9297 2.758 9.1404 0.348m-9.3128 5.1708 5 1.0352-4.6562 2.5m-0.2579-6.5547 8.8789 2.2461m-8.1872 7.1559 8.5349-4.57m0.688 4.828-8.2776 3.02m9.2266-0.434-8.3633 3.278m10.345 1.983-1.377 1.122-0.086 3.621 3.02-2.238m-10.354-0.3487 7.6758-4.3125m4.1093 7.0156-7.3867 4.5391 0.60547-7.1836-4.0234 2.5273m8.3907 10.695 3.4492-3.3359s1.0352-0.80469 1.8398-0.22656c0.80469 0.57031-0.11328 2.1836-0.11328 2.1836l-3.2227 3.332m2.418 1.8399 3.9102-4.4805s1.3789-2.6484-1.1523-4.832c-2.5273-2.1836-4.5977-0.69141-4.9414-0.57422-0.34766 0.11719-4.2578 4.2539-4.2578 4.2539" stroke-width="0.862"/>
   <path d="m63.464 90.864s0.85938-0.28906 1.0352 0.23047c0.17187 0.51563-0.11719 1.1484-0.57813 1.1484-0.45703 0-1.0312-0.17187-0.91796-0.63281 0.11328-0.46094 0.46093-0.7461 0.46093-0.7461zm-20.18 2.012s-0.63282-0.17187-0.92188 0.28907c-0.28906 0.45703 0.0586 0.80078 0.34766 0.91796 0.28515 0.11329 0.85937-0.11718 0.85937-0.11718s0.11719-0.80078-0.28515-1.0898zm1.1484-3.6211s-0.34375-0.0586-0.46093 0.34375c-0.11329 0.40234 0.23046 0.69141 0.23046 0.69141l0.69141-0.23047s0.0547-0.75-0.46094-0.80469zm45.188-25.641-0.402 1.09 1.781-0.113z" stroke-width="0.626"/>
   <path d="m72.374 47.227s-0.28906-0.7461 0.28516-1.6094c0 0 0.17578 1.3789 0.86328 1.668m-42.973-4.285s-0.17187-0.64453-1.0352-0.90234c-0.86328-0.26172-3.2344-0.86328-2.5-5.0898 0 0 0.6875 1.7695 2.9727 2.5 2.2852 0.73437 2.2852 3.4922 2.2852 3.4922m-7.7616 6.3671s2.0703-0.34766 1.5976-1.7695c-0.47656-1.4219-1.4258-0.51563-1.4258-0.51563s-0.77343 0.94532-0.47265 2.2422m0.1719 2.8437s1.7695-0.38672 1.4688-1.5508c-0.30469-1.1641-1.2539-1.207-1.6836-0.82031m-0.08593 5.2187s1.1641-1.3828 0.64453-2.332c-0.51562-0.94532-1.5938-0.51563-1.8086 0.39062m1.7227 4.2265s0.47657-1.6836-0.38671-2.1562c-0.86329-0.47656-1.5938 0.043-1.3789 0.94922m3.0156 5.043s0.69141-3.4062-0.55859-3.75c-1.25-0.34765-1.5508 0.73047-1.3789 1.3359m4.3554 5.2618s0.51563-3.8398-1.207-4.0117c-1.7266-0.17188-0.90625 2.0703-0.6914 2.3281m-4.3125-10.91s-0.38672-2.1524 0.64843-2.5859c1.0352-0.42969 1.3789 0.69141 1.1641 1.5117m-2.4571 4.3515s-1.0391-2.1562-0.21875-3.0586c0.82032-0.90625 1.7266 0.6875 1.6836 1.6797m-0.64837 4.7851s-1.7656-1.0352-1.4219-2.4141c0.34375-1.3789 1.293-0.21484 1.4648-0.21484 0.17187 0 0.94922 1.6797 0.94922 1.6797m1.1213 4.2265s-2.3281-1.25-2.543-2.1992c-0.21484-0.94922 0.17188-1.1211 0.82032-1.1211 0.64453 0 1.1641 0.5625 1.7226 1.4258m2.1992 4.2226s-2.4141-0.25781-2.543-1.3359 0.64453-0.90234 0.64453-0.90234 0.82032 0.082 1.8555 0.94531m-1.941-13.456s-2.0234 3.0625-1.7656 6.2109c0.25781 3.1484 3.1484 7.8906 6.8125 9.6992 3.6641 1.8125 4.957 4.6133 4.957 4.6133l-1.0352 1.168s0.043-3.4531-4.3086-5.6523c0 0-2.1562 1.1211-3.4492 0.30469-1.2969-0.82032-0.21875-1.25-0.21875-1.25s1.0352-0.69141 2.8906 0.21484m9.2854-14.946s-2.0742-0.34375-1.5976-1.7695c0.47265-1.4219 1.4219-0.51563 1.4219-0.51563s0.77735 0.94922 0.47657 2.2422m-0.17192 2.8437s-1.7695-0.38672-1.4688-1.5508c0.30469-1.1641 1.25-1.207 1.6836-0.82031m0.08714 5.2205s-1.1641-1.3789-0.64844-2.3281c0.51954-0.94922 1.5977-0.51953 1.8125 0.38672m-1.7266 4.2265s-0.47265-1.6836 0.38672-2.1562c0.86328-0.47656 1.5977 0.043 1.3828 0.94922m-3.0195 5.0469s-0.6914-3.4102 0.5625-3.7539c1.25-0.34375 1.5508 0.73437 1.3789 1.3359m-4.3554 5.2618s-0.51953-3.8398 1.207-4.0078c1.7266-0.17578 0.90625 2.0664 0.6875 2.3281m4.3164-10.91s0.38672-2.1562-0.64844-2.5859c-1.0352-0.43359-1.3789 0.6875-1.1641 1.5078m2.4571 4.3515s1.0352-2.1523 0.21484-3.0586c-0.8164-0.90625-1.7226 0.6875-1.6797 1.6797m0.64458 4.789s1.7695-1.0352 1.4258-2.4141c-0.34766-1.3828-1.2969-0.21875-1.4688-0.21875-0.17188 0-0.94532 1.6836-0.94532 1.6836m-1.121 4.226s2.3281-1.25 2.543-2.1992c0.21484-0.94922-0.17188-1.1211-0.82031-1.1211-0.64453 0-1.1641 0.55859-1.7227 1.4219m-2.203 4.2243s2.418-0.26171 2.5469-1.3359c0.12891-1.0781-0.64844-0.90625-0.64844-0.90625s-0.82031 0.0859-1.8555 0.94922m1.9415-13.453s2.0273 3.0586 1.7695 6.207c-0.25781 3.1484-3.1484 7.8906-6.8125 9.7031-3.668 1.8086-4.957 4.6133-4.957 4.6133l1.0312 1.1641s-0.043-3.4492 4.3125-5.6484c0 0 2.1562 1.1211 3.4492 0.30078 1.2969-0.82031 0.21484-1.25 0.21484-1.25s-1.0352-0.6914-2.8867 0.21485m-3.465-3.726s1.1211-0.26172 1.7695 0c0.64844 0.25781 0.47266 1.8945 0.0859 1.9805 0 0-1.293 0.19141-1.9414 0.0195 0 0-0.77343-0.88281 0.0859-2zm1.7891-4.7694-0.34375 15.008s-0.30078 0.94922-0.77343 0.94922c-0.47657 0-0.73438-0.12891-0.77735-0.99219-0.043-0.86328-0.043-15.137-0.043-15.137m1.0967-2.6913-0.82031-0.82422s-1.1016 0-0.94532 1.0078l0.794 0.789-0.793 0.793s-0.0312 1.25 1.0039 0.94531l0.76172-0.76172m-0.37991-1.9336 0.82422-0.82422s1.0977 0 0.94531 1.0039l-0.79296 0.79296 0.79296 0.79297s0.0274 1.25-1.0078 0.94532l-0.76172-0.76172m-0.87111-5.7383s1.8125-0.17188 2.4141 0m-2.5-1.3789s1.8125-0.17188 2.5859 0m-3.4494-2.674s1.9844-1.207 4.3125 0m-2.1562-2.1564s-2.0664 0.17187-2.4141 1.0352c-0.34375 0.86329 0.25781 1.1211 0.25781 1.1211s0.77734 1.3828 0.86328 2.6758c0 0-0.86328 0.77344 0.0859 1.3789 0 0 0 2.0703 0.34766 3.1016m0.85937-9.3127s2.0703 0.17187 2.4141 1.0352c0.34375 0.86329-0.25781 1.1211-0.25781 1.1211s-0.77734 1.3828-0.86328 2.6758c0 0 0.86328 0.77344-0.0859 1.3789 0 0 0 2.0703-0.34375 3.1016m19.489 16.128s0.23047 1.2344-2.4414 2.0117c-2.6719 0.77735 2.0703-0.57422 2.0703-0.57422s-3.5664 3.5039-8.1641 5.2031m11.382-10.523-2.4141 0.25781-0.60547 4.832m-0.603 11.987s0.34375 1.3789 1.1211 1.293c0.77344-0.0859-1.2969 0.94531-1.2969 0.94531zm8.969-22.336m0 0s0.85937 0.77344 0.77343 1.8945c-0.0859 1.1211 0.4336-1.207 0.4336-1.207zm14.227-11.125-0.34375 1.5508 0.77344-0.25781zm-15.348 21.3s0.85938 0.86328 0.42969 1.293c0 0-0.86328 2.5 1.9844 3.4492m-3.6211-6.7266s0.0859 2.0703 1.207 1.9844c1.1172-0.0859 4.1367-3.625 4.1367-3.625s0.51563-0.42969-1.1172 2.5898c-1.6406 3.0195-4.3164 2.6719-4.3164 2.6719m-6.7261 10.262s-4.9141 1.1211-6.293 2.2422m10.262-12.246s-0.34375 3.4492 2.0703 4.4844m-1.8985-6.4649s0.51953 3.1875 2.4141 3.1875m-4.0508-4.7419s0.60547-0.34375 0.6875 1.0352c0.0898 1.3828-0.25781 9.832-0.25781 9.832s-3.1016 1.293-2.9336 3.4492m0.77738-11.812-0.77735 13.539s6.3828-3.1914 6.7266-13.195c0.34765-10.004 0.86328-11.383-0.34375-12.504 0 0-0.34375 5-1.1211 6.5508-0.77343 1.5547-2.0703 2.1602-2.0703 2.1602s1.207-0.6914 1.2969 0l-1.379 10.863m-1.812-11.983s-1.8125 0.082-3.3633-1.0352c-1.5508-1.1211 1.5508 0.94532 1.5508 0.94532l-0.94922 0.26171 2.5-0.0898m0.08592 0.94918s-0.6875 1.293-3.4492 0.43359m-5.9493 5.8633s2.5859 0.86329 4.2266 0.0859m-4.0546 4.5701s0.86328 1.3789 0.17578 1.8125c-0.69141 0.42969-1.9844 0.42969-1.9844 0.42969l-0.94922 2.5898m3.4494-5.2619s-0.94922 0.86328-2.4141 0.86328m10.605-18.027s2.6758 2.5039 3.1055 4.0547c0.43359 1.5547-1.3789 3.6211-1.3789 3.6211l-6.0391 8.3633s-2.5859 1.4688-3.4492 1.2969c-0.85938-0.17187-2.6719-0.86328-2.6719-0.86328m11.644-17.074s-5.4375 2.9336-5.8672 2.9336c-0.42969 0-1.9844 1.1211-2.5859 3.4492-0.60547 2.3281-7.0703 13.797-8.4531 14.66-1.3789 0.85938 6.4688-7.8477 7.332-16.902 0 0 0.0859-2.0703 1.8086-2.6758 1.7266-0.60157 5.7773-2.3281 5.7773-2.3281m10.61 10.952s0.51562 2.8438-0.17188 4.5703c-0.6914 1.7226-2.3281 3.707-4.4844 2.7578m9.4843-20.609s3.8828 1.207 5.3477-0.17188m-2.1564 6.555s0.0859 1.8086-0.77734 2.0664m2.414-1.9805 1.1211 1.5508m-5.4291-3.6208s1.4648 0.69141 2.4141 0.77735m3.0149-2.5864s-0.082 3.0156-0.85937 3.793c-0.777 0.773-5.867-1.207-6.297-1.293m8.7114-5.434s-0.17187 1.9805-0.86328 2.6719c-0.692 0.688-6.469 0.172-8.106-1.293m1.8094 12.159s0.94922 0.0859 1.5547 1.7226c0.60156 1.6406 0.25781 4.5742 2.4141 6.8984m-13.107-20.35s5.5156 2.5039 5.8594 4.6602c0.34766 2.1562-0.51562 3.707-0.51562 3.707l-1.379 3.449 5.1719-0.0859 0.86329-2.8477m8.1056-11.038s-0.25781 4.918-2.1523 7.5039c-1.8984 2.5859-5.6953 3.5352-5.6953 3.5352l-5.172-0.431m14.574-10.519s-0.34765 4.3945-1.3828 6.9844c-1.0312 2.5859-3.4453 5.3438-3.6172 6.8125-0.17578 1.4648-0.6914 3.9648 0.17188 6.6406m-0.434-23.628s-1.1211 1.4648-0.25781 3.6211c0 0 2.5859 0.0859 4.4844-0.69141m-3.021-7.07s0.0859 0.86328 0.0859 1.207m-1.6367-1.207 0.4336 1.8125m-3.0195-2.8476-0.4336 1.5547 0.4336 1.8945m-1.8125-4.9141s0.0859 1.207-0.4336 1.5508m-8.277 6.812s0.25781 1.8125 1.4648 2.3281c0 0 2.1602 0.0859 2.6758 0.94922m-7.8477 1.293s6.6406-2.3281 7.1602-3.4492m-11.816 3.0196s0.51562-0.60547 0.42968-1.7266m0 0 3.8828 0.51953s0.85937 1.207-0.26172 2.5859l-4.3945-1.3789-4.3164-1.1211s-0.17187-2.0703 1.2109-2.5zm-2.6447-1.3789s2.7305-0.60547 3.5938-0.0859l2.8477 1.6367c1.6367-0.85937 5.3438-3.4453 5.3438-3.4453m4.9177-3.5395-1.5547 2.1562s0.94922 1.207 1.7266 1.207c0 0-1.9844-0.25782-2.2422 0.43359-0.26172 0.6875 0.51562-1.6406 0.51562-1.6406m-2.4106 0.25674-0.94922 1.1211s1.4648 1.2109 2.2461 1.293m-0.69141-3.4493-0.60547 1.0352s0.77734 0.6914 1.9844 0.86328m1.3789-6.5544s-1.1211 2.6758-0.6875 3.9688c0 0-0.77734 4.1367-1.3789 4.8281 0 0 1.2891 6.0391 8.2774 10.695m-3.3675-23.456s-4.3125 0.60156-4.9141 4.5703c-0.60547 3.9648-0.6914 4.0508-0.6914 4.0508s0.42968 0.60547 1.8086 0.77735c1.3828 0.17187-1.8086-0.77735-1.8086-0.77735m13.192-9.7422s-3.707 1.8945-5.3438 2.2422c-1.6406 0.34375-4.3125-0.25781-4.3125-0.25781m10.777 5.9492 0.43359 1.6406m-2.0703-4.4883 0.94922 3.2774s2.9336-1.8945 4.7422-0.77344m-8.712-10.005s0.34765 1.6367 3.5352 2.4141c0 0 2.5039 0.42969 3.6211 2.8477 1.125 2.4141 2.5039 9.0508 2.5039 9.0508s0.34375 2.418-0.94922 2.6758c-1.293 0.25782-3.9688 0.0859-8.1914-3.7969l-2.7617 2.1562s-0.86328 0.25781-1.3789-0.77344c0 0-0.60156 0.34375-0.77734 1.293-0.17188 0.94922-0.94531 0.6875-0.94531 0.6875s-0.0859-2.0664 1.1211-3.1875 2.6719-2.0703 3.9648-2.0703c0 0 0.86329-0.4336 2.3281 0.17187 1.4648 0.60156 2.6719 0.6875 3.5352 0.86328 0.86328 0.17188 3.7109 0.94532 3.8828 1.4648m-16.644-17.332l0.51953 0.6875h-0.77735m0.28517-2.0976s0.11719 1.6094-0.34375 2.3008c-0.46094 0.6875-0.69141 1.3789-0.69141 1.3789s0.23047 0.57422 0.69141 0.6914c0 0 0.57422 1.3789 0.57422 1.9531 0 0.57422 0.92187 0.6875 1.3789 0.57422 0.46093-0.11328 1.3828-0.80469 1.3828-0.80469s-0.23047 1.9531 0.11328 2.6445m2.7618-5.4022s0 1.2617 1.0312 1.4961c1.0352 0.22656 1.2656-0.80859 1.2656-0.80859l-0.23047-2.4141m-3.6796 0.69149s-0.11328 1.0352 0.57812 1.2617c0.6875 0.23047 1.3789-0.6875 1.3789-0.6875v-1.4961m-5.4062-1.4961s0.23047 1.1524 1.4961 0.92188c0 0 0 1.8398 1.9531 1.4961 0 0 1.0352-0.69141 0.80859-1.4961m-4.4883-2.6445s-1.6094 0.11328-1.0312 1.2656c0.57422 1.1484 1.2617 0.45703 1.2617 0.45703l0.46094-1.4922m-0.69144-0.23043s2.418 0.57421 3.7969 2.1836 3.5625 1.2656 3.5625 1.2656 0.46094-2.7578-2.4141-3.9102c-2.875-1.1484-4.9453 0.46094-4.9453 0.46094zm-3.9141-2.3548s-1.1445-0.28907-1.0859 0.96875 0 23.113 0 23.113m2.5898-33.051v-2.3672m0 5.8164v2.0664m11.72 0h-12.879s-1.8398 0.92969-0.34375 3.4531h16.441m-11.039-8.9687h-3.8984s-1.7188 1.3203 0 3.4492h9.1914" stroke-linecap="round" stroke-width=".69"/>
  </g>
 </g>
</svg>
