<?xml version="1.0" standalone="no"?>
<!DOCTYPE svg PUBLIC "-//W3C//DTD SVG 20010904//EN"
 "http://www.w3.org/TR/2001/REC-SVG-20010904/DTD/svg10.dtd">
<svg version="1.0" xmlns="http://www.w3.org/2000/svg"
 width="512.000000pt" height="512.000000pt" viewBox="0 0 512.000000 512.000000"
 preserveAspectRatio="xMidYMid meet">

<g transform="translate(0.000000,512.000000) scale(0.100000,-0.100000)"
fill="#000000" stroke="none">
<path d="M2620 5103 c-97 -68 -180 -255 -180 -408 0 -86 27 -182 95 -341 90
-210 107 -237 199 -330 82 -81 149 -125 241 -159 28 -10 52 -20 54 -22 2 -1
-12 -20 -32 -42 -20 -22 -49 -64 -64 -93 -25 -48 -28 -63 -28 -153 l0 -100
134 -310 c73 -170 144 -325 156 -345 51 -81 160 -147 260 -157 l55 -6 -32 -35
c-63 -73 -95 -187 -78 -282 6 -31 61 -175 124 -320 62 -146 112 -267 110 -269
-1 -2 -15 6 -31 17 -79 56 -193 75 -285 48 -31 -9 -150 -70 -264 -136 -114
-66 -209 -118 -211 -117 -1 2 24 102 56 223 32 120 62 238 66 261 14 89 -32
217 -104 286 -70 68 -305 237 -350 252 -146 48 -196 35 -467 -121 -119 -68
-218 -123 -220 -121 -2 1 24 102 58 222 76 275 80 345 30 446 -37 76 -67 106
-232 230 -134 101 -195 133 -277 144 -101 13 -141 -5 -637 -291 l-460 -266
-23 28 c-13 16 -35 53 -50 83 -27 55 -33 116 -23 255 3 45 0 52 -29 78 -67 60
-148 22 -170 -80 -33 -156 15 -342 121 -466 54 -63 337 -275 420 -314 96 -46
178 -63 292 -63 56 0 116 5 135 11 19 5 37 8 39 5 3 -2 -1 -24 -7 -49 -26
-105 -6 -212 56 -300 37 -52 557 -448 633 -481 66 -29 229 -29 285 2 l40 21 0
-102 c0 -91 3 -106 28 -156 16 -30 40 -68 55 -84 15 -16 151 -122 303 -236
281 -211 317 -232 420 -246 52 -7 156 16 208 47 18 11 35 18 37 16 2 -2 9 -39
15 -82 20 -144 79 -269 174 -369 72 -75 272 -221 358 -261 200 -92 423 -82
622 30 51 28 70 45 81 72 28 65 -17 136 -86 136 -16 0 -66 -19 -112 -42 -108
-55 -202 -71 -306 -52 -117 21 -118 -22 10 458 l113 421 17 -83 c21 -110 125
-354 189 -444 120 -172 336 -281 554 -281 75 0 116 17 133 55 15 33 15 57 0
90 -17 37 -58 55 -127 55 -148 0 -295 65 -372 163 l-22 29 375 376 c429 431
423 423 423 572 0 83 -2 89 -68 245 -38 88 -79 179 -92 201 -32 54 -86 101
-155 133 -54 26 -58 26 -324 29 l-269 3 176 178 c193 195 229 248 241 359 9
74 -6 128 -90 327 -61 142 -74 166 -124 216 -38 39 -73 63 -115 79 -56 23 -75
24 -319 28 l-259 4 176 176 c218 221 232 244 232 387 l0 100 -72 165 c-80 184
-116 240 -187 287 -74 51 -131 63 -284 63 l-134 0 -34 -34 c-46 -46 -46 -86 0
-132 32 -32 37 -34 107 -34 l74 0 -191 -191 -191 -191 -73 11 c-129 20 -250
95 -320 196 -43 63 -160 337 -172 406 -18 96 22 253 77 299 22 18 45 64 45 90
0 75 -90 125 -150 83z m1248 -931 c63 -150 72 -194 51 -249 -9 -24 -674 -703
-689 -703 -3 0 -34 66 -68 148 -64 150 -72 193 -51 249 9 25 674 703 689 703
3 0 34 -66 68 -148z m212 -960 c0 -4 -83 -90 -183 -190 l-184 -184 -139 4
c-167 4 -186 13 -233 111 l-29 62 101 103 102 102 282 0 c156 0 283 -3 283 -8z
m-2487 -176 c100 -77 128 -103 141 -136 9 -22 16 -46 16 -54 0 -11 -193 -744
-236 -893 l-15 -53 -133 101 c-140 104 -166 136 -166 199 0 18 54 234 120 480
66 246 120 451 120 455 0 14 31 -6 153 -99z m2761 -31 c31 -72 61 -147 67
-167 21 -80 17 -85 -354 -456 l-343 -343 -57 133 c-74 173 -79 192 -66 242 9
35 61 91 352 383 187 188 342 341 343 340 1 -1 28 -61 58 -132z m-3134 84 c0
-6 -24 -102 -54 -213 -30 -110 -59 -220 -65 -242 -10 -37 -17 -44 -69 -67
-157 -71 -333 -48 -485 62 l-68 48 363 211 c200 116 366 211 371 211 4 1 7 -4
7 -10z m1390 -829 c116 -88 140 -114 154 -173 5 -20 -28 -157 -115 -485 -67
-251 -125 -460 -128 -464 -3 -4 -66 38 -139 93 -138 104 -162 133 -162 197 0
16 54 230 120 476 66 246 120 450 120 453 0 12 36 -11 150 -97z m-370 53 c0
-10 -130 -496 -133 -498 -1 -1 -52 -30 -112 -64 -146 -81 -201 -82 -291 -3
l-32 27 37 133 36 133 240 139 c132 77 243 139 248 140 4 0 7 -3 7 -7z m2160
-468 l-185 -186 -142 3 c-169 4 -180 9 -231 109 l-33 65 98 97 98 97 290 0
290 0 -185 -185z m460 -53 c63 -150 70 -184 45 -236 -8 -17 -165 -182 -349
-365 -318 -318 -335 -334 -344 -310 -6 13 -20 49 -32 79 -30 75 -37 187 -16
267 32 126 51 150 344 445 152 153 279 275 284 270 4 -4 34 -72 68 -150z
m-1233 -311 c132 -98 157 -130 155 -196 -1 -31 -214 -853 -237 -913 -7 -18
-76 31 -138 97 -92 98 -140 255 -118 378 6 32 52 212 103 400 62 234 95 340
102 334 6 -4 66 -49 133 -100z m-427 -178 c-34 -125 -63 -235 -66 -244 -6 -21
-212 -138 -255 -145 -41 -7 -95 13 -149 56 l-37 30 36 131 36 132 245 141
c135 79 246 139 248 135 2 -4 -24 -110 -58 -236z m812 97 c-15 -33 -29 -55
-31 -48 -2 7 -12 34 -21 61 l-18 47 48 0 48 0 -26 -60z"/>
<path d="M2964 4566 c-24 -24 -34 -43 -34 -66 0 -41 56 -100 94 -100 105 0
146 139 55 186 -45 23 -78 17 -115 -20z"/>
</g>
</svg>
